ply
format ascii 1.0
element vertex 512
property float x
property float y
property float z
property uchar red
property uchar green
property uchar blue
end_header
0.555467 -0.058660 -0.681214 159 82 107
0.851238 -0.372188 2.128628 159 82 107
0.533218 1.359085 -1.695024 159 82 107
0.065099 1.855679 -0.952633 159 82 107
-0.394366 -0.607312 -0.732749 159 82 107
-2.049630 0.836468 0.658830 159 82 107
-1.019664 0.453602 -0.097324 159 82 107
0.869157 -1.807520 1.044610 159 82 107
-0.912388 -0.587783 0.277262 159 82 107
0.619580 1.660657 1.444777 159 82 107
-0.455730 0.269240 -0.572722 159 82 107
-0.042498 -0.260526 0.024448 159 82 107
-0.132731 -0.143036 -0.484489 159 82 107
0.061830 0.726310 -0.265283 159 82 107
-0.538127 -0.588786 -0.761003 159 82 107
-0.443372 0.766381 1.164113 159 82 107
-1.314406 -1.185896 -0.662671 159 82 107
-0.112671 0.791506 0.235332 159 82 107
0.181088 0.343370 -2.155797 159 82 107
0.860002 1.856614 -0.248838 159 82 107
1.564555 -0.408178 -0.108144 159 82 107
-0.989443 -0.521126 -0.365819 159 82 107
0.935360 1.229112 -1.274506 159 82 107
-0.310650 -1.019035 -1.365997 159 82 107
0.405769 2.875980 0.586878 159 82 107
-1.228092 -2.200035 0.850262 159 82 107
0.788583 -0.571846 1.280800 159 82 107
0.445364 -1.149583 0.072092 159 82 107
1.167014 -0.333883 0.335886 159 82 107
-1.974672 0.913242 0.281753 159 82 107
1.753561 -1.131470 -1.328418 159 82 107
-1.650387 0.146451 -0.359701 159 82 107
-0.295971 1.253248 -0.423369 159 82 107
1.454601 0.168722 0.971734 159 82 107
-1.732078 2.204200 1.194956 159 82 107
-0.133694 0.763321 0.305726 159 82 107
-0.738846 -0.517457 0.553039 159 82 107
-2.003085 -0.807711 -2.059113 159 82 107
-0.068258 0.000540 1.743351 159 82 107
1.180990 0.461564 -1.785001 159 82 107
-0.530623 -0.125788 -0.029835 159 82 107
1.317822 -0.596291 -2.037140 159 82 107
2.376399 -2.141479 0.864237 159 82 107
-1.062426 -0.574009 -0.117456 159 82 107
-0.343418 0.739099 -0.449098 159 82 107
0.512154 0.593468 -1.205068 159 82 107
1.179161 -0.463474 -0.299915 159 82 107
-1.494251 0.819682 1.191913 159 82 107
0.040502 0.647014 0.665672 159 82 107
-0.437714 0.580565 1.413855 159 82 107
-0.055732 0.425121 0.263276 159 82 107
0.650368 0.185247 -2.062971 159 82 107
-0.283364 0.628386 1.417960 159 82 107
0.456380 0.858558 0.411095 159 82 107
0.088774 -0.489029 -0.869960 159 82 107
-0.334506 0.627471 -1.691183 159 82 107
-1.871248 -1.821060 -0.310837 159 82 107
-0.471241 0.443949 0.283650 159 82 107
2.417553 1.140517 -1.809097 159 82 107
-0.991957 -1.142584 -0.475168 159 82 107
-1.572352 0.559260 0.109685 159 82 107
0.207593 1.372495 0.339035 159 82 107
0.706437 0.753368 -0.069948 159 82 107
1.033992 1.250399 -0.166890 159 82 107
0.067357 -0.737231 -0.034579 159 82 107
-0.843417 0.557024 0.252176 159 82 107
-0.811835 0.332167 -0.797900 159 82 107
-1.535473 -0.127094 1.301200 159 82 107
0.605361 -0.013428 0.624256 159 82 107
-0.986079 0.182517 -1.323976 159 82 107
-0.638304 1.701333 0.766488 159 82 107
2.788472 0.165752 1.466766 159 82 107
0.533779 -0.044681 0.276347 159 82 107
-1.570516 1.180392 -0.725629 159 82 107
1.640438 1.564533 -0.644318 159 82 107
-1.435728 0.485376 -0.671361 159 82 107
0.514894 -0.642352 1.152127 159 82 107
-0.864029 -0.338213 0.632560 159 82 107
0.691338 -0.308453 -1.513832 159 82 107
0.594325 -1.411701 1.829041 159 82 107
0.517181 1.639632 -1.459366 159 82 107
0.736330 -1.932138 0.191213 159 82 107
-0.582738 0.482193 1.231426 159 82 107
-0.668972 -0.593143 0.699844 159 82 107
0.471720 0.886246 -0.467777 159 82 107
-1.021132 0.478403 1.319396 159 82 107
0.238942 2.776623 0.044863 159 82 107
1.258232 0.466177 -0.313432 159 82 107
-0.886355 0.001029 -0.547621 159 82 107
-2.055013 -0.505832 1.379035 159 82 107
-0.161822 1.772358 -0.944935 159 82 107
0.213543 -0.031377 -0.825294 159 82 107
-0.116897 -0.872736 -1.313415 159 82 107
0.570311 1.065272 -0.571573 159 82 107
0.839535 0.941747 1.522178 159 82 107
-1.029309 1.407166 -1.270424 159 82 107
-1.967687 0.947844 -1.445862 159 82 107
0.669204 -1.455686 -0.509097 159 82 107
-1.831477 0.661834 0.255580 159 82 107
-0.011187 -0.779571 -0.942931 159 82 107
0.831663 -0.034720 -0.614823 159 82 107
-0.617528 0.457365 -0.716960 159 82 107
0.473816 0.411175 0.388042 159 82 107
-0.437907 0.001488 -1.446881 159 82 107
1.048973 -0.598762 0.192490 159 82 107
-0.268215 0.955949 0.989144 159 82 107
-1.561326 -1.238104 1.127968 159 82 107
-0.321405 0.937417 -1.059239 159 82 107
-0.915540 1.394676 -0.116392 159 82 107
-0.054548 -0.262873 1.381146 159 82 107
1.265783 -0.169779 0.834115 159 82 107
-0.911649 1.051557 -1.712926 159 82 107
-1.363769 1.894099 0.655194 159 82 107
0.436880 -0.340483 0.225066 159 82 107
-1.194871 -2.062791 0.432587 159 82 107
0.676646 0.725076 0.698858 159 82 107
0.158181 -1.238335 -0.076129 159 82 107
0.498004 -1.010736 -0.188479 159 82 107
0.351289 0.763948 0.843614 159 82 107
-0.002684 0.169832 -0.076343 159 82 107
1.519630 -2.732197 -0.272662 159 82 107
-0.055868 0.023267 -1.307903 159 82 107
-0.449851 -0.600843 -0.000183 159 82 107
-1.808209 0.876118 -1.830200 159 82 107
0.403936 -1.186895 -0.051865 159 82 107
1.238938 -0.984171 0.415306 159 82 107
0.503707 -0.778867 0.167383 159 82 107
-0.038408 -0.732605 -2.022137 159 82 107
-1.595049 -0.248914 0.231436 159 82 107
-0.001386 -0.080638 1.069418 159 82 107
0.370323 -0.327376 0.314637 159 82 107
1.343330 -0.124846 -0.076288 159 82 107
-1.417407 -0.053376 0.914194 159 82 107
-0.126304 -0.257045 0.177696 159 82 107
-0.062316 1.485734 -0.988719 159 82 107
0.219223 -0.583862 -0.325961 159 82 107
1.097361 1.461252 -0.480718 159 82 107
-0.274543 -1.610904 1.629014 159 82 107
-0.707699 -0.527857 -0.129264 159 82 107
-0.653190 -0.125843 -0.434599 159 82 107
0.456233 -0.273047 -0.498759 159 82 107
-0.675085 0.174285 0.862935 159 82 107
0.643508 2.215750 -0.899913 159 82 107
0.184786 0.414653 0.719800 159 82 107
1.249407 -1.471896 0.321596 159 82 107
-0.633750 -1.501408 0.417641 159 82 107
-2.443226 0.248375 0.829412 159 82 107
0.429087 1.512604 1.114962 159 82 107
-1.108360 1.218390 0.435790 159 82 107
1.747402 0.309333 -0.225378 159 82 107
0.616211 -0.730330 -0.532678 159 82 107
-0.572738 -0.598785 -1.651767 159 82 107
0.403187 0.098282 0.025870 159 82 107
0.131673 -1.593602 -0.908999 159 82 107
-2.074944 -0.396637 -1.129207 159 82 107
0.005885 2.223134 -0.292560 159 82 107
-0.065169 0.990500 -1.470770 159 82 107
-0.607420 2.836630 0.535766 159 82 107
-1.246187 -1.338975 -0.417555 159 82 107
-1.162121 -0.116790 0.858394 159 82 107
-0.916701 -1.502158 0.881910 159 82 107
0.021730 -0.496506 1.393588 159 82 107
-1.647057 0.827357 1.396234 159 82 107
0.848698 0.927232 0.988968 159 82 107
1.506888 1.164927 0.328830 159 82 107
-1.262462 -0.003259 -1.306015 159 82 107
1.161617 -0.629271 -1.203884 159 82 107
1.374566 0.006539 -0.644447 159 82 107
-0.485539 0.085090 -0.740800 159 82 107
0.824514 0.759369 -1.412885 159 82 107
-1.207414 -0.218343 0.136333 159 82 107
-1.075751 0.614669 1.412504 159 82 107
-0.611239 -0.413105 -1.965043 159 82 107
0.728391 -0.503944 -0.392252 159 82 107
-0.232978 -0.129612 -0.348109 159 82 107
0.816288 0.200705 -0.827708 159 82 107
0.779329 0.003698 -0.351223 159 82 107
0.038546 -0.656192 0.858472 159 82 107
0.417035 1.232960 0.852861 159 82 107
-1.264763 -0.266125 -2.136859 159 82 107
-0.640114 -0.414344 -0.419727 159 82 107
-0.640776 0.539601 0.605882 159 82 107
-0.475684 -1.112938 -0.920952 159 82 107
1.312919 0.457979 -0.760641 159 82 107
0.620916 -0.374514 1.265274 159 82 107
-0.735398 0.762087 0.165227 159 82 107
-1.684047 -2.408142 0.374683 159 82 107
-0.845489 -0.498222 -0.395208 159 82 107
-0.484228 -1.653205 -0.507625 159 82 107
1.788661 0.783770 -0.398503 159 82 107
0.314978 -0.848414 0.176697 159 82 107
-0.072852 0.669228 0.341000 159 82 107
0.707664 -0.052028 -0.498003 159 82 107
0.882111 0.057640 -0.306599 159 82 107
0.931976 0.552082 -0.036643 159 82 107
0.896475 -0.538778 -0.907836 159 82 107
-0.296573 -0.348028 -0.454260 159 82 107
0.283404 0.697044 1.227687 159 82 107
0.573997 0.401584 0.110377 159 82 107
0.110666 -0.212570 -0.388319 159 82 107
1.377805 1.393022 2.528664 159 82 107
0.458960 -0.484178 0.057352 159 82 107
0.804769 0.599507 0.566425 159 82 107
-0.285147 -2.786300 0.528210 159 82 107
0.255478 -0.820526 -0.096924 159 82 107
0.550967 1.586007 0.155430 159 82 107
0.101150 1.749051 -0.542148 159 82 107
0.235993 1.119199 -0.793709 159 82 107
0.223128 -2.144657 -0.030601 159 82 107
-0.551011 -1.825508 -0.215416 159 82 107
1.176124 -0.730690 -0.469998 159 82 107
-1.203339 0.216142 -2.105173 159 82 107
1.722167 0.909579 -0.859759 159 82 107
0.792258 0.202854 0.182100 159 82 107
0.960956 0.802661 0.169334 159 82 107
-0.964786 1.930600 0.802535 159 82 107
2.095878 -0.407805 -0.890122 159 82 107
0.073559 1.161191 -0.657671 159 82 107
-0.748313 0.030183 1.028752 159 82 107
-0.441250 1.919506 1.542503 159 82 107
-1.901545 0.334026 -0.651198 159 82 107
0.684452 -0.428366 0.435178 159 82 107
1.214434 0.270242 -2.639145 159 82 107
-0.541436 1.989105 0.334125 159 82 107
-0.764156 0.217598 0.873316 159 82 107
-0.069962 0.786180 1.078000 159 82 107
0.415611 -0.091017 -1.346218 159 82 107
0.381293 -0.801305 -0.172658 159 82 107
0.453817 1.707467 0.406635 159 82 107
0.120143 -1.074832 -0.801810 159 82 107
0.004640 -0.105120 -0.903123 159 82 107
1.501669 0.272888 0.417738 159 82 107
-1.368619 -1.090648 -0.554933 159 82 107
-1.300085 0.790529 -0.429776 159 82 107
0.278565 0.481642 -0.436147 159 82 107
-0.090223 1.493375 0.665257 159 82 107
0.577143 -1.148961 0.575587 159 82 107
-0.140206 0.004311 0.149685 159 82 107
0.032710 0.550637 -0.099991 159 82 107
-0.774689 -0.155387 0.304022 159 82 107
-0.074396 0.109441 0.602794 159 82 107
0.540185 -0.777122 1.542670 159 82 107
1.467652 -0.087513 -0.222360 159 82 107
-0.171656 -0.791928 1.188839 159 82 107
1.586441 -0.360937 0.845529 159 82 107
-0.379632 0.672100 0.934989 159 82 107
-0.130589 -1.345070 1.499806 159 82 107
-0.123993 0.078797 -1.399435 159 82 107
0.144759 0.469255 0.063137 159 82 107
-1.146870 1.075425 0.258134 159 82 107
1.831314 0.090244 -0.598378 159 82 107
0.999167 1.488395 -1.498916 159 82 107
-1.036502 -0.074629 -0.879146 159 82 107
0.415542 0.043811 -1.036469 159 82 107
-1.396224 -0.285005 1.294943 159 82 107
1.121841 0.113935 -1.063138 159 82 107
0.801109 -0.565085 0.552093 159 82 107
0.359461 -1.436922 -0.188325 159 82 107
-0.470854 -0.547913 -0.062695 159 82 107
-0.715178 -0.655906 -0.023755 159 82 107
-1.305045 -0.918404 -0.105769 159 82 107
-0.124706 0.785731 -0.365911 159 82 107
-0.054059 -0.245416 -1.318227 159 82 107
0.187459 -0.561597 0.735698 159 82 107
-0.936490 -0.847659 2.108094 159 82 107
1.988601 0.736831 -0.441217 159 82 107
0.320392 -1.330783 0.249098 159 82 107
0.122267 -2.322420 -0.000923 159 82 107
-0.080744 -0.633751 0.648919 159 82 107
-0.097897 0.103675 0.039702 159 82 107
-0.559414 0.656443 -1.109837 159 82 107
1.158901 -2.313637 0.707663 159 82 107
0.249904 -0.553967 -0.027560 159 82 107
0.926744 0.404079 0.603491 159 82 107
-2.959366 0.935338 1.322533 159 82 107
0.300426 -1.270611 0.150223 159 82 107
1.010788 0.870020 0.517320 159 82 107
-0.523291 -0.271963 -1.093176 159 82 107
-0.541023 0.124419 -1.999248 159 82 107
-1.685049 1.364223 -0.181437 159 82 107
-0.023718 0.788513 -1.004673 159 82 107
-0.950584 -1.473699 -0.983228 159 82 107
2.723921 0.466529 -0.530101 159 82 107
0.372714 -2.247882 -1.480589 159 82 107
-0.410242 -2.345158 -0.572146 159 82 107
0.231716 0.471790 -0.486227 159 82 107
-0.203605 -0.662328 -3.580460 159 82 107
-1.888926 0.197156 0.195640 159 82 107
-2.041191 -0.488335 0.438320 159 82 107
-0.053409 1.691041 -1.051410 159 82 107
0.950305 -1.729591 -0.665347 159 82 107
-1.128235 1.697992 0.676306 159 82 107
-0.845432 -1.455691 0.205631 159 82 107
-1.454943 -0.707311 1.178603 159 82 107
-1.211202 -0.030084 0.779727 159 82 107
-0.389907 -0.507006 0.302387 159 82 107
1.353911 0.501991 0.999465 159 82 107
0.288825 0.054127 -1.810414 159 82 107
0.405447 1.536270 -1.082882 159 82 107
0.815360 -0.982403 -0.685206 159 82 107
-1.726057 -0.042065 1.620525 159 82 107
-1.574832 -0.165505 0.005111 159 82 107
-1.252696 0.561588 -1.011598 159 82 107
1.264390 -1.173527 -1.246661 159 82 107
0.532258 1.314524 -1.452814 159 82 107
-0.895961 0.892732 -0.547964 159 82 107
-1.224496 -0.169269 0.298926 159 82 107
-0.360785 0.824576 0.200880 159 82 107
-1.854994 -1.431886 0.601229 159 82 107
-1.544275 1.536481 1.070574 159 82 107
1.198125 1.827745 0.680181 159 82 107
0.151952 -0.771419 1.344034 159 82 107
0.039302 -0.610848 0.434844 159 82 107
-0.915193 -0.310578 0.584430 159 82 107
-0.159419 -1.259704 0.006276 159 82 107
0.333660 -0.385467 -0.339268 159 82 107
-0.068721 0.273047 0.648245 159 82 107
-0.566539 -0.062057 -0.506598 159 82 107
-0.537717 0.453977 0.207583 159 82 107
-0.992323 -0.006813 0.341998 159 82 107
-0.224811 -0.254688 0.038794 159 82 107
-0.376049 0.626643 -2.691128 159 82 107
0.321120 -0.314422 0.518872 159 82 107
-0.000268 1.157111 -0.791838 159 82 107
-0.436834 -0.329500 -0.417598 159 82 107
0.583075 0.196947 0.124506 159 82 107
-0.044706 0.291809 -0.893767 159 82 107
0.280677 0.570946 -0.598083 159 82 107
1.685781 1.264908 0.405025 159 82 107
0.052556 -0.202890 -0.455094 159 82 107
-0.949772 -0.763382 -1.705681 159 82 107
1.107457 -0.949253 -1.445441 159 82 107
1.900010 0.209390 -0.535556 159 82 107
-2.202832 0.089228 0.641339 159 82 107
0.980322 0.093007 -0.122873 159 82 107
1.279894 -2.009820 0.616855 159 82 107
0.468702 -0.719055 0.056483 159 82 107
-1.620927 0.098665 -0.405939 159 82 107
0.421529 -0.715897 -1.062080 159 82 107
-0.992811 0.050435 0.810463 159 82 107
0.317649 -1.191327 1.380319 159 82 107
-0.272735 -0.005115 -0.641156 159 82 107
2.739570 -0.698490 1.647021 159 82 107
-0.303533 0.078410 -1.311905 159 82 107
0.161480 -1.057826 0.677400 159 82 107
-0.096819 -0.148114 0.808564 159 82 107
1.872117 0.573865 0.364325 159 82 107
0.967339 -1.117159 0.291740 159 82 107
-0.352580 -0.107632 -1.607809 159 82 107
0.983380 1.355165 -1.084746 159 82 107
-0.996194 0.108508 -0.745183 159 82 107
-0.498693 -0.261857 -0.181850 159 82 107
0.101794 0.023208 0.637314 159 82 107
-0.149899 0.214298 1.903616 159 82 107
1.935016 -0.189302 -0.457641 159 82 107
1.617669 -1.240515 -0.678224 159 82 107
0.135300 -0.076974 0.793723 159 82 107
-0.689364 -1.142660 -0.672065 159 82 107
1.318432 -1.379112 -0.523847 159 82 107
-0.191329 0.391731 -0.752816 159 82 107
-0.727441 1.092784 1.380397 159 82 107
-0.141518 -0.082455 0.043762 159 82 107
1.500912 0.838135 0.635516 159 82 107
-1.326268 -1.066359 0.218732 159 82 107
-0.468705 0.977730 1.223350 159 82 107
0.636844 -0.667460 1.498572 159 82 107
0.717679 1.955779 -0.998385 159 82 107
0.415036 1.129232 -0.354145 159 82 107
0.409334 0.727066 -1.347819 159 82 107
0.963605 -1.313358 0.054172 159 82 107
0.532063 -0.046442 -0.859898 159 82 107
-0.093771 0.614002 -1.054858 159 82 107
1.232392 -0.697733 0.133050 159 82 107
0.274467 1.470841 0.217411 159 82 107
1.180547 -0.183315 0.040306 159 82 107
0.221727 0.942350 0.508355 159 82 107
1.010740 -0.289001 0.815102 159 82 107
0.211367 -0.090213 -0.339741 159 82 107
-1.330701 0.374985 0.977733 159 82 107
-1.178240 0.394456 1.161907 159 82 107
1.068802 0.399258 -1.687000 159 82 107
0.785849 -1.370216 -1.679820 159 82 107
1.947188 0.309282 -0.820271 159 82 107
-0.315255 -0.453847 -0.183693 159 82 107
-2.164017 1.691762 0.834492 159 82 107
-0.805952 0.841574 0.161875 159 82 107
0.444021 -1.163797 0.273171 159 82 107
-0.218270 -0.152321 -0.682425 159 82 107
-0.709453 -0.031727 -0.191080 159 82 107
2.597290 -1.561256 -0.098526 159 82 107
-0.480883 -1.797724 -1.164731 159 82 107
-0.928910 -1.049269 -0.824448 159 82 107
0.063174 1.837534 0.144614 159 82 107
-1.349648 -1.142889 0.641010 159 82 107
-0.056636 -0.229748 0.696944 159 82 107
1.183529 0.238542 -0.597318 159 82 107
0.201601 -1.222245 0.451161 159 82 107
-0.398467 0.329634 0.991816 159 82 107
-0.748104 0.486471 1.407519 159 82 107
-0.057625 1.099051 1.167343 159 82 107
0.237691 0.235275 -1.500587 159 82 107
-1.932648 -0.733257 0.597086 159 82 107
-0.218974 -1.613036 -0.805547 159 82 107
1.859524 0.009406 0.308949 159 82 107
-0.482724 -1.704142 0.374846 159 82 107
2.003571 0.541326 0.561133 159 82 107
-1.383373 0.575961 -1.307776 159 82 107
-0.204915 -1.194125 1.593095 159 82 107
0.473252 0.316847 -1.484245 159 82 107
0.830330 -0.877536 0.953467 159 82 107
-0.122634 0.337870 -0.121426 159 82 107
0.034303 0.384828 -0.767856 159 82 107
-1.426062 -0.334713 -0.215766 159 82 107
-1.102304 0.446693 -0.039403 159 82 107
0.438787 0.765343 -0.750879 159 82 107
0.395978 -0.849293 -1.085295 159 82 107
0.620729 0.295354 -0.153915 159 82 107
0.110615 -1.095201 -1.050577 159 82 107
-1.579384 -0.622170 0.202653 159 82 107
0.461958 0.410405 0.138079 159 82 107
-0.788056 1.759283 0.744951 159 82 107
0.459592 1.971036 -0.517462 159 82 107
-1.017714 0.923604 0.800037 159 82 107
-1.070012 0.829359 -0.421644 159 82 107
-1.332810 -0.453846 -0.008625 159 82 107
-1.854478 -0.110788 -0.906820 159 82 107
0.296817 0.129039 -0.932265 159 82 107
1.348516 -0.527617 -0.497917 159 82 107
0.832230 -1.056011 0.684632 159 82 107
1.452340 -0.621725 0.794476 159 82 107
1.329732 1.591620 -0.154065 159 82 107
1.252602 1.319090 0.996957 159 82 107
1.571207 -2.341428 -1.106829 159 82 107
2.244195 -0.310700 -1.386072 159 82 107
-1.164246 -0.221396 0.869064 159 82 107
-0.064829 -2.851334 -1.274016 159 82 107
0.089584 -0.991717 -0.160233 159 82 107
-1.501530 0.404291 -1.002479 159 82 107
-0.758067 0.132367 -0.522586 159 82 107
1.472448 0.353503 -0.624898 159 82 107
0.042325 1.587434 2.061498 159 82 107
0.434040 0.157616 0.941771 159 82 107
2.290233 -0.285612 0.308866 159 82 107
0.060247 0.003720 0.765230 159 82 107
1.147112 0.624393 1.092621 159 82 107
0.011386 0.973164 -2.254349 159 82 107
0.623564 -0.021251 0.947921 159 82 107
-0.585699 -0.645315 -0.616446 159 82 107
-0.714902 -0.422273 0.503951 159 82 107
0.482978 -0.426658 -0.250290 159 82 107
-1.791874 0.629916 -1.991678 159 82 107
1.287188 2.043139 0.204209 159 82 107
-0.657777 -0.620989 -0.575857 159 82 107
-0.287654 -0.677871 -0.844449 159 82 107
1.705697 0.581356 0.883904 159 82 107
-0.304997 0.582287 0.221398 159 82 107
-1.520480 -0.054885 0.502447 159 82 107
-0.869056 0.512906 -0.624058 159 82 107
2.630582 1.784474 -2.184399 159 82 107
-0.646072 -0.301977 2.018574 159 82 107
-0.406804 0.755941 0.388681 159 82 107
-0.487794 0.050202 -1.389966 159 82 107
-0.547878 -0.556345 -0.727636 159 82 107
-1.449191 -0.666079 1.555506 159 82 107
1.153041 0.063058 0.640038 159 82 107
0.361063 -0.282939 0.861704 159 82 107
0.092882 -0.712706 0.209546 159 82 107
0.417816 1.291062 0.704803 159 82 107
2.245643 -0.326890 -0.321709 159 82 107
-0.081789 0.485572 -1.043016 159 82 107
0.442983 -0.298821 0.044931 159 82 107
-0.064304 -1.287056 -0.300363 159 82 107
0.016822 -1.188945 1.522184 159 82 107
0.435167 -0.695429 -0.454957 159 82 107
1.078972 1.404036 -0.474042 159 82 107
-0.025677 2.514672 -0.159928 159 82 107
0.237379 -0.028348 0.051903 159 82 107
-1.690792 1.533229 -0.782828 159 82 107
0.357115 2.623991 -0.276323 159 82 107
1.155875 -1.567860 -0.805822 159 82 107
-0.968937 0.626968 0.166694 159 82 107
-0.541463 -1.758990 -0.006669 159 82 107
1.116862 -0.349491 -1.239808 159 82 107
0.272291 -0.174007 -0.739793 159 82 107
-1.653985 -0.000889 2.622457 159 82 107
0.721762 -0.395497 1.022989 159 82 107
-0.001798 -0.202392 1.304436 159 82 107
-0.657051 1.914655 -0.747632 159 82 107
-0.861440 0.519511 -0.094920 159 82 107
2.967796 0.984776 -0.542955 159 82 107
0.346950 -2.959309 0.904797 159 82 107
1.057627 -1.301453 0.334379 159 82 107
-0.038483 -0.195922 -0.025544 159 82 107
0.649763 -1.842135 0.057801 159 82 107
0.216930 0.870068 -0.212563 159 82 107
1.008953 -0.298691 1.235423 159 82 107
-0.538918 1.090483 0.197505 159 82 107
-0.995829 0.959955 -2.949138 159 82 107
1.912961 0.488355 -0.367989 159 82 107
-0.207487 1.157964 0.524155 159 82 107
0.271082 1.317964 1.417893 159 82 107
-1.132404 0.498989 -0.221880 159 82 107
0.477395 0.124072 -0.068420 159 82 107
0.714769 -0.900512 1.477803 159 82 107
0.590381 -1.845166 -1.520269 159 82 107
2.421502 -1.269417 1.043309 159 82 107
0.658070 -2.677367 -0.407471 159 82 107
-0.431763 -0.184149 0.558804 159 82 107
-0.084933 0.463137 0.949425 159 82 107
0.133528 -0.258253 0.135264 159 82 107
1.722125 -0.772303 -0.450590 159 82 107
-0.349673 0.628326 -0.560593 159 82 107
