ply
format ascii 1.0
element vertex 257
property float x
property float y
property float z
property uchar red
property uchar green
property uchar blue
end_header
0.763910 0.165512 -0.558191 153 83 112
1.598408 -1.787212 -0.784378 153 83 112
-1.466345 0.371307 -0.466543 153 83 112
2.111190 0.017806 -0.238807 153 83 112
0.572700 -0.732197 -1.083909 153 83 112
0.535006 -0.489018 0.975975 153 83 112
0.334780 0.116421 0.068450 153 83 112
-0.086310 0.407529 -0.397226 153 83 112
-1.957705 0.077800 -0.460597 153 83 112
-1.376921 0.780685 -0.380246 153 83 112
-1.745234 -0.074765 -0.674766 153 83 112
-1.701547 0.312187 -1.050559 153 83 112
0.718371 -0.897489 0.977046 153 83 112
0.425424 0.108610 -0.755835 153 83 112
0.904811 0.503556 -0.362399 153 83 112
0.580637 -1.025582 -1.279766 153 83 112
-0.095566 0.071117 0.427907 153 83 112
0.065047 1.240713 -1.290504 153 83 112
0.568326 0.225643 1.356211 153 83 112
0.124916 0.316304 1.761284 153 83 112
0.796291 0.608556 -0.390133 153 83 112
0.138950 -1.652413 -0.843725 153 83 112
0.646993 -1.779169 0.092892 153 83 112
0.017834 0.389099 -1.696298 153 83 112
-2.030861 1.109562 0.110720 153 83 112
0.410162 1.616632 0.173838 153 83 112
-1.964149 -0.312088 0.818374 153 83 112
-0.425411 -0.302872 -0.601557 153 83 112
1.467876 1.243302 -1.809802 153 83 112
1.904287 -0.774082 2.027639 153 83 112
-1.313934 1.101617 -0.566430 153 83 112
-0.155721 0.883374 -0.739656 153 83 112
0.315313 0.307464 1.191266 153 83 112
1.366657 1.879014 0.303870 153 83 112
0.408722 -0.568594 -0.766882 153 83 112
-1.321170 -0.226283 0.156402 153 83 112
0.020217 0.573322 -1.356196 153 83 112
1.732604 0.307109 1.093204 153 83 112
0.345248 -0.876515 -0.325865 153 83 112
-3.298281 0.213852 -0.069306 153 83 112
1.213014 -1.755960 -0.078585 153 83 112
-0.305408 -1.263187 -1.468160 153 83 112
-1.175506 0.983888 0.985295 153 83 112
-1.439946 -0.166732 0.473388 153 83 112
0.325660 -1.518477 -0.601674 153 83 112
-1.435736 1.016411 2.595306 153 83 112
-0.049871 -2.145682 0.818563 153 83 112
1.556836 1.478672 0.164640 153 83 112
0.529815 0.094853 0.720556 153 83 112
0.941414 -0.753578 -0.586508 153 83 112
-0.341669 -0.230300 0.191731 153 83 112
1.118659 -1.306570 0.918506 153 83 112
-0.197011 -2.866120 -0.398709 153 83 112
-0.272886 0.548210 0.589559 153 83 112
-0.006366 -0.814444 0.952767 153 83 112
-0.677130 -1.188447 -0.641492 153 83 112
-0.538604 -0.114113 -0.447953 153 83 112
-0.364371 0.741624 0.796501 153 83 112
0.532853 -0.309445 -0.667257 153 83 112
-0.231774 -0.146695 0.841447 153 83 112
-0.280218 -1.204723 -0.837275 153 83 112
1.764185 -0.932661 -1.263797 153 83 112
-0.291670 1.761065 0.096441 153 83 112
0.292649 -1.576563 -1.498826 153 83 112
-0.002371 -0.457612 0.389661 153 83 112
-1.102476 1.053049 1.357474 153 83 112
-1.546905 0.245138 -0.279224 153 83 112
1.442606 0.225829 0.953252 153 83 112
-0.076270 0.314189 2.132827 153 83 112
2.076361 -1.696434 0.381244 153 83 112
0.241289 -1.073785 -0.768006 153 83 112
0.184938 0.956003 0.523113 153 83 112
-0.418734 -1.061165 -2.093291 153 83 112
1.540011 -0.556746 -0.859431 153 83 112
0.337627 -0.085895 -0.016658 153 83 112
0.657169 -0.486218 -1.057691 153 83 112
-0.142539 0.065586 -1.088434 153 83 112
-1.105132 -1.047383 0.815821 153 83 112
1.384412 1.273480 -0.913123 153 83 112
-0.693702 -1.277216 1.836647 153 83 112
-0.484227 -0.037548 -0.475933 153 83 112
0.167486 -1.048619 -0.620375 153 83 112
-0.912112 -2.365152 0.254466 153 83 112
0.738014 0.969977 1.559062 153 83 112
0.949735 -0.072259 0.542974 153 83 112
-0.531127 0.792658 -0.287302 153 83 112
-2.325064 -0.031548 0.061209 153 83 112
-1.175101 0.474172 1.186993 153 83 112
-1.156100 0.755960 0.867385 153 83 112
-0.950385 -0.443094 -1.093200 153 83 112
-0.578715 -0.050005 1.166219 153 83 112
-0.638917 -1.554673 -3.144454 153 83 112
-0.669456 -1.313451 0.185577 153 83 112
0.229409 -1.586944 0.362287 153 83 112
-0.211590 -0.253190 -0.520583 153 83 112
0.960408 0.594575 0.187216 153 83 112
1.150926 0.034728 0.138684 153 83 112
0.535303 -0.270409 -1.202013 153 83 112
1.762442 0.943016 -1.299445 153 83 112
-0.983211 -1.065648 -1.523663 153 83 112
0.362077 1.502133 0.387137 153 83 112
1.559174 -0.418281 0.262950 153 83 112
-0.926609 0.021488 1.074081 153 83 112
0.713539 1.020333 -0.407719 153 83 112
0.912647 1.450209 0.563561 153 83 112
-1.390103 0.282331 0.244274 153 83 112
-0.672074 -1.030791 -0.812350 153 83 112
1.148899 0.133000 1.670913 153 83 112
-1.796981 0.422490 1.600164 153 83 112
1.831390 -0.539125 1.591339 153 83 112
1.093948 1.182342 0.214094 153 83 112
1.010165 0.915140 -0.602394 153 83 112
-2.701970 1.142049 1.066601 153 83 112
0.752521 -0.394258 -0.395907 153 83 112
-1.563447 1.633658 -0.072981 153 83 112
0.856345 -0.334668 -2.337434 153 83 112
0.808484 1.233405 1.877916 153 83 112
-0.093821 -0.458483 0.171365 153 83 112
-1.021879 -0.857971 0.629335 153 83 112
-0.218609 -0.514233 0.403839 153 83 112
-0.335060 2.421007 -0.280792 153 83 112
1.563173 0.711232 0.983744 153 83 112
0.367694 -0.137498 0.010680 153 83 112
-0.594935 0.380303 0.979119 153 83 112
-2.428747 -1.260868 -1.192747 153 83 112
0.653484 0.625642 -0.412743 153 83 112
1.505123 -0.380513 0.539233 153 83 112
0.796227 -0.164026 1.038174 153 83 112
-0.372791 -0.022783 0.106853 153 83 112
0.751801 1.433009 -0.763766 153 83 112
-1.385660 0.658892 -2.102143 153 83 112
0.045467 0.574431 -1.759078 153 83 112
-0.845316 -0.313036 -0.121685 153 83 112
-0.007697 0.395644 0.688627 153 83 112
-1.585090 1.244320 -0.290434 153 83 112
-0.420785 1.108615 -0.541242 153 83 112
-0.879393 -1.890392 1.257690 153 83 112
-1.786283 -1.318119 -2.129535 153 83 112
-0.400470 -1.869333 1.172728 153 83 112
-0.688639 -1.168148 0.376589 153 83 112
-1.077806 -0.126382 0.909766 153 83 112
-0.804323 -0.371350 -0.740731 153 83 112
-0.312448 3.058244 -2.132016 153 83 112
0.913235 0.058433 -0.696411 153 83 112
1.017386 1.250882 -0.899063 153 83 112
-0.087449 -0.609333 0.451945 153 83 112
0.179760 -0.016662 0.431842 153 83 112
0.512195 1.487852 -0.860768 153 83 112
-0.063793 2.449968 -0.635392 153 83 112
1.233461 -0.976699 0.728802 153 83 112
-0.171623 0.412299 -0.289114 153 83 112
1.299384 -0.035151 -0.164863 153 83 112
0.479172 -0.706283 -2.337151 153 83 112
-1.499902 -0.716086 1.721434 153 83 112
2.282627 -1.342760 0.165117 153 83 112
-0.677668 0.255570 -1.281362 153 83 112
0.362707 -0.796189 -1.189425 153 83 112
-0.654349 -2.013784 0.677495 153 83 112
-0.855401 1.498875 0.840695 153 83 112
1.239858 -0.401051 1.335708 153 83 112
1.330816 -0.385656 0.078391 153 83 112
1.470021 0.175959 -0.700063 153 83 112
1.104606 1.232617 -0.882344 153 83 112
0.460350 0.038321 1.153729 153 83 112
-0.728785 1.347111 0.951962 153 83 112
-0.360319 -0.535620 -1.166893 153 83 112
1.449544 -0.958023 -0.175370 153 83 112
1.937184 0.825855 0.334318 153 83 112
0.278021 -0.180899 -1.371928 153 83 112
0.603822 -1.119710 2.184924 153 83 112
-1.615099 -0.268504 0.054983 153 83 112
-0.587685 0.057079 0.722261 153 83 112
1.495085 0.180803 0.025038 153 83 112
0.402737 0.084221 -0.716846 153 83 112
0.040753 1.291839 0.143110 153 83 112
0.038435 -0.097992 0.616891 153 83 112
0.456297 0.491381 -0.293287 153 83 112
-2.333848 -0.597566 -0.010713 153 83 112
-0.893702 0.711086 -0.879420 153 83 112
-2.208159 0.854514 -0.214276 153 83 112
0.026121 -1.771230 -0.343346 153 83 112
-0.130349 0.087654 0.925448 153 83 112
-0.626241 -0.215452 1.726083 153 83 112
-0.133885 1.466821 -1.744854 153 83 112
-0.161494 1.259397 0.720376 153 83 112
1.547730 -0.350687 0.153049 153 83 112
-2.358124 -1.397765 0.545468 153 83 112
-0.615960 0.868039 -0.292018 153 83 112
0.561467 -0.836430 -1.042468 153 83 112
1.103857 0.583409 0.020981 153 83 112
0.858301 0.911643 1.162565 153 83 112
-0.317506 -0.737448 0.058508 153 83 112
0.365339 -1.319238 -2.218094 153 83 112
0.418410 1.243243 0.137388 153 83 112
-0.247510 0.195489 0.223014 153 83 112
-1.005083 0.286223 1.199390 153 83 112
0.414797 -0.130710 0.769103 153 83 112
0.623176 -1.014510 1.317829 153 83 112
0.837677 0.358172 0.485164 153 83 112
0.242465 -0.723875 0.660874 153 83 112
0.056638 1.144812 -0.508097 153 83 112
-0.749802 -0.862341 1.060212 153 83 112
-0.024658 -0.532058 -1.251405 153 83 112
2.563608 0.110938 -0.615411 153 83 112
-0.456547 1.182572 -0.275847 153 83 112
-1.064737 -0.080648 1.643695 153 83 112
1.259117 1.333489 -0.666000 153 83 112
-1.433151 -0.372345 -0.408820 153 83 112
0.009586 0.924831 -0.555880 153 83 112
-0.766948 -1.090603 0.733831 153 83 112
0.413812 0.899804 -1.279713 153 83 112
-0.476643 1.290568 0.405855 153 83 112
1.182352 0.965684 0.736086 153 83 112
-0.610940 -0.113319 0.318001 153 83 112
2.349478 0.742044 -0.094017 153 83 112
0.186312 0.433215 -0.192037 153 83 112
0.733498 1.102205 2.464376 153 83 112
1.528384 0.316668 -0.613900 153 83 112
-1.202221 1.000432 1.235166 153 83 112
1.501363 0.328563 0.035011 153 83 112
-0.062480 0.842526 -2.047008 153 83 112
-1.729522 -2.469537 -0.434604 153 83 112
-0.116621 1.203180 0.049952 153 83 112
0.536022 -0.114519 -0.486399 153 83 112
-1.092355 0.256505 -0.029347 153 83 112
-1.055146 -0.556924 -1.067564 153 83 112
-0.849122 1.245143 0.376838 153 83 112
0.527768 -0.947716 -0.572721 153 83 112
1.222630 -0.681427 -0.622043 153 83 112
0.668246 1.177975 1.235700 153 83 112
0.222989 -0.617051 0.362316 153 83 112
0.513839 -0.215630 -0.230496 153 83 112
0.765059 1.967809 -1.672966 153 83 112
0.043084 -1.577245 0.074545 153 83 112
-0.306236 2.040681 0.543948 153 83 112
-1.060898 1.563224 -1.540861 153 83 112
0.697686 1.818897 0.407416 153 83 112
0.731330 0.552721 -0.111986 153 83 112
0.312185 -1.473524 0.600501 153 83 112
-0.659069 0.880500 -0.288378 153 83 112
-0.071044 -0.180547 -0.778047 153 83 112
0.564389 -0.225363 -1.011410 153 83 112
-0.428560 -0.150977 0.427214 153 83 112
0.228927 -0.442497 0.301541 153 83 112
2.261331 -0.252522 -2.805757 153 83 112
-1.129308 -0.642893 1.194700 153 83 112
1.235346 -0.480934 0.229581 153 83 112
-0.099123 -1.246726 0.090428 153 83 112
0.370658 -1.063268 0.239116 153 83 112
1.133050 -1.712106 0.193288 153 83 112
0.789801 1.031981 -1.111027 153 83 112
-0.386394 0.040815 1.061269 153 83 112
1.969800 0.229688 1.287070 153 83 112
-0.173243 -0.349783 1.086713 153 83 112
1.639953 1.885517 -0.714961 153 83 112
-1.001089 1.675992 -2.121446 153 83 112
-0.209225 -0.618280 1.410478 153 83 112
